<?xml version="1.0" encoding="utf-8"?>
<!-- Generator: Adobe Illustrator 16.0.0, SVG Export Plug-In . SVG Version: 6.00 Build 0)  -->
<!DOCTYPE svg PUBLIC "-//W3C//DTD SVG 1.1//EN" "http://www.w3.org/Graphics/SVG/1.1/DTD/svg11.dtd">
<svg version="1.1" id="Layer_1" xmlns="http://www.w3.org/2000/svg" xmlns:xlink="http://www.w3.org/1999/xlink" x="0px" y="0px"
	 width="255.12px" height="283.46px" viewBox="0 0 255.12 283.46" enable-background="new 0 0 255.12 283.46" xml:space="preserve">
<g>
	<g>
		<defs>
			<rect id="SVGID_1_" x="144.581" y="-16.377" width="121.107" height="230.939"/>
		</defs>
		<clipPath id="SVGID_2_">
			<use xlink:href="#SVGID_1_"  overflow="visible"/>
		</clipPath>
		<g clip-path="url(#SVGID_2_)">
			<g>
				<path fill="#FFFFFF" d="M220.679,193.35c-0.053,0.012-0.104,0.035-0.158,0.035c-51.576,0.002-103.153,0.002-154.772,0.002
					c0-51.614,0-103.227,0-154.907c51.614,0,103.272,0,154.93,0C220.679,90.065,220.679,141.708,220.679,193.35z M190.776,67.258
					c-5.324-3.668-10.365-7.109-15.352-10.629c-0.402-0.285-0.682-1.168-0.574-1.68c0.594-2.814,1.324-5.601,2.047-8.556
					c-6.842-2.229-13.521-4.408-20.217-6.591c-1.285,3.279-2.453,6.257-3.514,8.969c-6.719,0-13.205,0-19.938,0
					c-1.088-2.758-2.281-5.778-3.543-8.979c-6.787,2.223-13.463,4.411-20.198,6.617c0.722,2.97,1.284,5.677,2.063,8.32
					c0.334,1.135,0.004,1.551-0.907,2.112c-2.904,1.793-5.802,3.614-8.564,5.613c-2.122,1.536-4.038,3.355-6.062,5.063
					c-2.777-1.769-5.483-3.492-8.11-5.164c-0.279,0.146-0.431,0.175-0.496,0.266c-3.887,5.308-7.754,10.629-11.656,15.924
					c-0.737,1-0.362,1.581,0.466,2.241c2.158,1.721,4.269,3.501,5.985,4.917c-1.807,5.876-3.635,11.354-5.112,16.925
					c-0.431,1.626-0.994,2.043-2.509,2.063c-2.547,0.033-5.093,0.266-7.572,0.409c0,7.376,0,14.503,0,21.702
					c2.896,0.191,5.664,0.333,8.421,0.59c0.513,0.047,1.3,0.454,1.425,0.859c1.806,5.871,3.521,11.77,5.34,17.95
					c-1.602,1.327-3.572,3.098-5.69,4.668c-1.294,0.96-1.385,1.685-0.417,2.971c3.334,4.432,6.553,8.95,9.824,13.43
					c0.559,0.767,1.152,1.507,1.817,2.372c2.932-1.857,5.729-3.632,7.953-5.042c5.276,3.62,10.187,7.028,15.148,10.356
					c0.858,0.577,1.038,1.054,0.764,2.042c-0.767,2.767-1.392,5.574-2.108,8.51c6.813,2.22,13.45,4.383,20.204,6.584
					c1.299-3.303,2.514-6.39,3.596-9.141c6.726,0,13.198,0,19.813,0c1.119,2.839,2.33,5.918,3.604,9.147
					c6.846-2.239,13.48-4.409,20.207-6.607c-0.748-3.016-1.49-5.81-2.098-8.632c-0.113-0.53,0.123-1.449,0.521-1.73
					c5.035-3.555,10.129-7.025,15.309-10.585c2.379,1.517,5.18,3.3,8.068,5.142c4.105-5.64,8.041-11.063,12-16.47
					c0.705-0.963,0.193-1.478-0.533-2.064c-2.197-1.778-4.363-3.6-6.229-5.146c2.064-6.28,4.045-12.298,6.115-18.593
					c2.848-0.191,6.092-0.41,9.32-0.627c0-7.348,0-14.482,0-21.645c-1.912-0.154-3.703-0.349-5.5-0.434
					c-4.125-0.194-3.992-0.212-5.129-4.097c-1.436-4.904-3.119-9.737-4.75-14.769c1.766-1.465,3.662-3.234,5.762-4.718
					c1.539-1.089,1.42-1.933,0.385-3.27c-2.213-2.854-4.289-5.813-6.42-8.729c-1.658-2.271-3.313-4.546-5.031-6.91
					C195.806,64.057,193.095,65.782,190.776,67.258z"/>
				<path fill="#010101" d="M190.776,67.258c2.318-1.476,5.029-3.201,7.926-5.044c1.721,2.364,3.375,4.639,5.033,6.91
					c2.129,2.918,4.207,5.875,6.418,8.729c1.035,1.337,1.156,2.181-0.385,3.27c-2.098,1.483-3.996,3.253-5.76,4.718
					c1.631,5.03,3.314,9.863,4.75,14.769c1.137,3.885,1.002,3.901,5.129,4.097c1.795,0.085,3.586,0.279,5.5,0.434
					c0,7.162,0,14.297,0,21.645c-3.229,0.218-6.475,0.436-9.32,0.627c-2.07,6.294-4.051,12.313-6.115,18.593
					c1.865,1.546,4.029,3.367,6.229,5.146c0.727,0.587,1.238,1.102,0.531,2.064c-3.957,5.407-7.895,10.83-12,16.47
					c-2.889-1.842-5.688-3.625-8.068-5.142c-5.178,3.561-10.271,7.031-15.307,10.585c-0.4,0.281-0.637,1.2-0.523,1.73
					c0.607,2.822,1.35,5.616,2.098,8.632c-6.725,2.198-13.361,4.369-20.207,6.607c-1.271-3.229-2.482-6.309-3.602-9.147
					c-6.615,0-13.09,0-19.813,0c-1.082,2.751-2.297,5.838-3.596,9.141c-6.753-2.201-13.392-4.364-20.205-6.584
					c0.717-2.938,1.342-5.743,2.108-8.51c0.274-0.987,0.095-1.465-0.764-2.042c-4.962-3.329-9.872-6.736-15.148-10.356
					c-2.224,1.41-5.021,3.185-7.953,5.042c-0.665-0.865-1.259-1.604-1.817-2.372c-3.271-4.479-6.49-8.998-9.824-13.43
					c-0.968-1.286-0.877-2.011,0.417-2.971c2.118-1.57,4.089-3.341,5.69-4.668c-1.819-6.181-3.534-12.079-5.34-17.95
					c-0.125-0.405-0.912-0.813-1.425-0.859c-2.757-0.256-5.523-0.398-8.421-0.59c0-7.199,0-14.326,0-21.702
					c2.48-0.145,5.024-0.376,7.572-0.409c1.515-0.02,2.078-0.437,2.509-2.063c1.478-5.571,3.306-11.049,5.112-16.925
					c-1.717-1.416-3.827-3.195-5.985-4.917c-0.828-0.66-1.203-1.241-0.466-2.241c3.903-5.294,7.77-10.616,11.656-15.924
					c0.065-0.092,0.217-0.12,0.497-0.266c2.626,1.672,5.333,3.396,8.109,5.164c2.023-1.708,3.939-3.527,6.062-5.063
					c2.764-1.999,5.66-3.82,8.564-5.613c0.911-0.562,1.241-0.978,0.907-2.112c-0.779-2.645-1.342-5.352-2.063-8.32
					c6.734-2.206,13.411-4.395,20.199-6.617c1.264,3.2,2.455,6.222,3.543,8.979c6.733,0,13.218,0,19.937,0
					c1.063-2.712,2.229-5.689,3.514-8.969c6.695,2.183,13.375,4.36,20.219,6.591c-0.723,2.955-1.453,5.74-2.047,8.556
					c-0.107,0.512,0.172,1.396,0.574,1.68C180.411,60.148,185.452,63.59,190.776,67.258z M143.185,58.098
					c-31.806-0.001-57.767,25.774-57.793,57.38c-0.026,31.995,25.705,58.144,57.235,58.162c32.223,0.02,58.295-25.694,58.307-57.506
					C200.944,84.007,175.165,58.099,143.185,58.098z"/>
				<path fill="#FFFFFF" d="M143.185,58.098c31.98,0.001,57.76,25.91,57.748,58.036c-0.012,31.811-26.084,57.524-58.307,57.506
					c-31.531-0.019-57.262-26.167-57.235-58.162C85.417,83.871,111.378,58.096,143.185,58.098z"/>
			</g>
		</g>
	</g>
</g>
<text transform="matrix(1 0 0 1 41.9463 216.5625)" fill="#010101" font-family="'FuturaStd-Book'" font-size="19.9348" letter-spacing="5">SOLUTIONS</text>
<g>
	<path fill="#010101" d="M67.141,152.822l-16.442,38.666H34.078L96.954,48.751l59.901,141.313l-0.139,2.035l-14.893,0.25
		l-16.504-39.527H67.141z M96.592,84.164l-23.309,54.564h46.073L96.592,84.164z"/>
</g>
<rect x="97.111" y="48.688" fill="#010101" width="59.16" height="10.326"/>
</svg>
