<?xml version="1.0" encoding="UTF-8" ?>
<!DOCTYPE svg PUBLIC "-//W3C//DTD SVG 1.1//EN" "http://www.w3.org/Graphics/SVG/1.1/DTD/svg11.dtd">
<svg width="100pt" height="100pt" viewBox="0 0 100 100" version="1.1" xmlns="http://www.w3.org/2000/svg">
<path fill="#464646" d=" M 0.00 0.00 L 100.00 0.00 L 100.00 99.35 C 99.72 99.10 99.17 98.60 98.89 98.34 C 98.85 90.20 98.93 82.05 98.85 73.90 C 66.30 73.68 33.73 74.10 1.18 73.70 C 1.31 81.94 1.29 90.14 1.25 98.37 C 0.94 98.61 0.31 99.07 0.00 99.30 L 0.00 0.00 Z" />
<path fill="#ffffff" d=" M 1.22 1.21 C 33.77 1.17 66.32 1.18 98.87 1.21 C 98.91 24.77 98.85 48.29 98.87 71.85 C 66.32 71.87 33.76 71.81 1.20 71.88 C 1.21 70.46 1.22 69.04 1.23 67.62 C 3.40 68.44 5.76 68.02 8.03 68.13 C 10.57 63.07 12.69 57.76 14.73 52.47 C 22.65 52.04 30.62 52.30 38.56 52.34 C 40.71 57.61 42.80 62.91 45.14 68.10 C 47.47 68.12 49.81 68.12 52.15 68.10 C 43.88 48.31 35.38 28.62 27.02 8.86 C 18.36 28.42 10.07 48.15 1.22 67.61 C 1.22 45.48 1.21 23.35 1.22 1.21 Z" />
<path fill="#3750a3" d=" M 1.22 67.61 C 10.07 48.15 18.36 28.42 27.02 8.86 C 35.38 28.62 43.88 48.31 52.15 68.10 C 49.81 68.12 47.47 68.12 45.14 68.10 C 42.80 62.91 40.71 57.61 38.56 52.34 C 30.62 52.30 22.65 52.04 14.73 52.47 C 12.69 57.76 10.57 63.07 8.03 68.13 C 5.76 68.02 3.40 68.44 1.23 67.62 L 1.22 67.61 Z" />
<path fill="#d62027" d=" M 57.99 11.20 C 67.18 11.55 77.01 10.13 85.41 14.76 C 91.93 18.39 97.01 24.81 98.50 32.15 C 98.37 36.73 97.96 41.35 98.59 45.93 C 97.62 54.01 91.78 60.98 84.79 64.85 C 76.84 68.92 67.67 68.03 59.04 68.10 C 59.04 52.41 58.93 36.72 59.02 21.03 C 58.97 17.81 59.55 14.41 58.06 11.40 L 57.99 11.20 Z" />
<path fill="#d30d14" d=" M 58.06 11.40 C 59.55 14.41 58.97 17.81 59.02 21.03 C 58.93 36.72 59.04 52.41 59.04 68.10 L 57.73 68.13 C 57.70 49.64 57.76 31.14 57.71 12.65 L 58.06 11.40 Z" />
<path fill="#ffffff" d=" M 64.12 17.27 C 69.41 17.44 74.99 16.74 79.91 19.14 C 90.43 23.25 95.36 36.48 91.73 46.86 C 89.54 54.43 82.77 60.63 74.87 61.63 C 71.26 62.38 67.56 62.08 63.89 62.13 C 64.03 47.19 63.57 32.16 64.12 17.27 Z" />
<path fill="#ffffff" d=" M 26.00 25.98 C 26.29 25.71 26.88 25.16 27.17 24.89 C 30.00 32.10 33.30 39.15 35.83 46.46 C 29.95 46.46 24.06 46.37 18.17 46.51 C 18.15 46.20 18.11 45.59 18.09 45.29 C 20.47 38.76 23.58 32.50 26.00 25.98 Z" />
<path fill="#ffffff" d=" M 1.18 73.70 C 33.73 74.10 66.30 73.68 98.85 73.90 C 98.93 82.05 98.85 90.20 98.89 98.34 C 66.34 98.46 33.79 98.40 1.25 98.37 C 1.29 90.14 1.31 81.94 1.18 73.70 Z" />
<path fill="#3750a3" d=" M 1.82 82.03 C 1.43 77.79 8.78 77.02 9.01 81.32 C 7.19 80.28 3.32 78.73 3.20 82.22 C 4.86 84.65 10.05 84.21 9.70 88.13 C 9.72 92.56 1.01 93.52 1.99 88.28 L 2.72 88.51 C 3.45 91.85 9.19 90.39 7.85 87.11 C 6.29 84.93 2.16 85.26 1.82 82.03 Z" />
<path fill="#3750a3" d=" M 16.53 78.64 C 21.53 77.05 27.48 82.90 24.79 87.81 C 22.70 92.44 15.94 93.24 12.72 89.35 C 9.29 85.73 12.00 79.69 16.53 78.64 Z" />
<path fill="#3750a3" d=" M 45.22 78.40 C 47.72 78.47 50.22 78.48 52.72 78.40 C 52.85 78.77 53.11 79.50 53.24 79.86 C 52.40 79.88 50.71 79.92 49.86 79.93 C 49.79 83.90 49.93 87.88 49.80 91.85 C 49.39 91.90 48.56 92.00 48.14 92.06 C 48.15 88.01 48.18 83.97 48.13 79.92 C 47.28 79.92 45.59 79.91 44.74 79.90 C 44.86 79.53 45.10 78.78 45.22 78.40 Z" />
<path fill="#3750a3" d=" M 54.54 78.38 C 55.72 78.12 56.23 78.62 56.08 79.89 C 56.02 83.92 56.23 87.95 55.97 91.96 C 55.59 91.87 54.85 91.69 54.47 91.60 C 54.59 87.19 54.49 82.78 54.54 78.38 Z" />
<path fill="#3750a3" d=" M 85.43 78.29 C 85.72 78.30 86.29 78.33 86.58 78.34 C 86.70 82.93 86.52 87.51 86.66 92.10 C 82.72 89.34 80.20 84.82 76.36 82.02 C 76.42 85.35 76.41 88.68 76.41 92.01 L 74.77 91.92 C 74.70 87.32 74.76 82.72 74.74 78.13 C 78.55 81.20 81.49 85.26 85.06 88.60 C 85.39 85.18 84.63 81.62 85.43 78.29 Z" />
<path fill="#3750a3" d=" M 89.14 81.94 C 88.81 77.83 96.23 77.02 96.30 81.30 C 94.42 80.15 91.09 78.94 90.41 82.07 C 92.15 84.61 97.06 84.16 97.08 88.00 C 96.72 92.54 89.87 93.23 88.40 88.94 L 88.84 87.99 C 90.46 87.95 90.38 90.33 92.00 90.37 C 93.86 90.92 96.08 88.92 95.20 87.01 C 93.56 84.90 89.28 85.17 89.14 81.94 Z" />
<path fill="#3951a4" d=" M 27.57 78.39 L 29.23 78.37 C 29.28 82.39 29.13 86.42 29.29 90.43 C 30.55 90.72 33.69 89.41 33.21 91.76 C 31.33 91.93 29.45 91.93 27.56 91.95 C 27.49 87.43 27.48 82.91 27.57 78.39 Z" />
<path fill="#3750a3" d=" M 34.12 78.38 L 35.54 78.44 C 35.63 81.81 35.40 85.19 35.63 88.55 C 36.64 90.96 40.46 90.98 41.69 88.78 C 42.07 85.33 41.74 81.85 41.85 78.39 L 43.38 78.44 C 43.34 81.96 43.64 85.51 43.20 89.02 C 41.72 92.50 36.47 92.90 34.54 89.61 C 33.19 86.03 34.15 82.10 34.12 78.38 Z" />
<path fill="#3750a3" d=" M 62.27 79.27 C 66.75 76.47 73.31 80.76 72.61 85.95 C 72.03 90.92 65.34 93.75 61.41 90.53 C 56.95 88.15 57.76 81.12 62.27 79.27 Z" />
<path fill="#ffffff" d=" M 16.17 80.32 C 19.81 78.79 24.45 81.87 23.69 85.93 C 23.25 90.93 15.37 92.05 13.44 87.51 C 11.91 84.94 13.40 81.29 16.17 80.32 Z" />
<path fill="#ffffff" d=" M 63.27 80.38 C 66.92 78.76 71.82 81.74 70.85 85.97 C 70.55 90.75 63.22 91.98 60.95 87.99 C 58.97 85.49 60.36 81.44 63.27 80.38 Z" />
<path fill="#969696" d=" M 1.25 98.37 C 33.79 98.40 66.34 98.46 98.89 98.34 C 99.17 98.60 99.72 99.10 100.00 99.35 L 100.00 100.00 L 0.00 100.00 L 0.00 99.30 C 0.31 99.07 0.94 98.61 1.25 98.37 Z" />
</svg>
