<?xml version="1.0" encoding="utf-8"?>
<!-- Generator: Adobe Illustrator 16.0.0, SVG Export Plug-In . SVG Version: 6.00 Build 0)  -->
<!DOCTYPE svg PUBLIC "-//W3C//DTD SVG 1.1//EN" "http://www.w3.org/Graphics/SVG/1.1/DTD/svg11.dtd">
<svg version="1.1" id="Layer_1" xmlns="http://www.w3.org/2000/svg" xmlns:xlink="http://www.w3.org/1999/xlink" x="0px" y="0px"
	 width="841.89px" height="595.28px" viewBox="0 0 841.89 595.28" enable-background="new 0 0 841.89 595.28" xml:space="preserve">
<g>
	<defs>
		<rect id="SVGID_1_" x="412.223" y="37.835" width="121.109" height="230.94"/>
	</defs>
	<clipPath id="SVGID_2_">
		<use xlink:href="#SVGID_1_"  overflow="visible"/>
	</clipPath>
	<g clip-path="url(#SVGID_2_)">
		<g>
			<path fill-rule="evenodd" clip-rule="evenodd" fill="#FFFFFF" d="M488.321,247.562c-0.052,0.012-0.104,0.035-0.157,0.035
				c-51.577,0.002-103.154,0.002-154.773,0.002c0-51.614,0-103.227,0-154.907c51.615,0,103.273,0,154.931,0
				C488.321,144.278,488.321,195.92,488.321,247.562z M458.419,121.47c-5.325-3.668-10.366-7.109-15.351-10.629
				c-0.402-0.285-0.682-1.168-0.574-1.68c0.593-2.814,1.324-5.6,2.047-8.555c-6.843-2.23-13.522-4.408-20.218-6.591
				c-1.285,3.279-2.452,6.257-3.514,8.969c-6.717,0-13.204,0-19.937,0c-1.088-2.758-2.281-5.779-3.543-8.979
				c-6.787,2.223-13.464,4.411-20.198,6.617c0.721,2.97,1.284,5.677,2.063,8.321c0.334,1.134,0.004,1.55-0.907,2.112
				c-2.904,1.793-5.802,3.614-8.565,5.613c-2.122,1.536-4.038,3.356-6.061,5.063c-2.777-1.769-5.483-3.492-8.11-5.164
				c-0.28,0.146-0.431,0.174-0.497,0.265c-3.886,5.308-7.753,10.629-11.656,15.924c-0.737,1-0.362,1.581,0.466,2.241
				c2.158,1.721,4.269,3.501,5.985,4.917c-1.806,5.876-3.634,11.354-5.112,16.925c-0.431,1.626-0.994,2.043-2.509,2.063
				c-2.547,0.033-5.092,0.265-7.572,0.409c0,7.376,0,14.503,0,21.702c2.897,0.191,5.664,0.333,8.421,0.59
				c0.513,0.047,1.3,0.454,1.425,0.859c1.805,5.871,3.52,11.77,5.34,17.95c-1.602,1.328-3.573,3.098-5.691,4.668
				c-1.294,0.96-1.385,1.685-0.417,2.971c3.334,4.432,6.553,8.95,9.824,13.43c0.559,0.766,1.153,1.507,1.818,2.372
				c2.931-1.858,5.729-3.632,7.953-5.042c5.276,3.62,10.186,7.028,15.148,10.356c0.859,0.577,1.038,1.054,0.764,2.042
				c-0.767,2.767-1.392,5.574-2.108,8.51c6.812,2.22,13.45,4.383,20.204,6.584c1.299-3.303,2.513-6.39,3.595-9.141
				c6.725,0,13.199,0,19.814,0c1.118,2.839,2.33,5.918,3.602,9.148c6.846-2.239,13.482-4.409,20.207-6.608
				c-0.748-3.015-1.49-5.809-2.097-8.631c-0.114-0.531,0.123-1.45,0.522-1.731c5.035-3.555,10.129-7.025,15.308-10.585
				c2.38,1.517,5.179,3.3,8.068,5.142c4.105-5.64,8.042-11.063,12-16.47c0.706-0.963,0.194-1.477-0.532-2.064
				c-2.198-1.779-4.363-3.6-6.229-5.146c2.065-6.28,4.045-12.298,6.115-18.593c2.848-0.191,6.092-0.41,9.321-0.627
				c0-7.347,0-14.482,0-21.644c-1.913-0.154-3.704-0.349-5.5-0.434c-4.126-0.194-3.992-0.212-5.129-4.096
				c-1.436-4.905-3.119-9.738-4.75-14.769c1.765-1.465,3.662-3.234,5.761-4.718c1.54-1.089,1.42-1.932,0.384-3.269
				c-2.211-2.855-4.289-5.813-6.419-8.73c-1.658-2.271-3.312-4.546-5.032-6.91C463.449,118.269,460.738,119.994,458.419,121.47z"/>
			<path fill-rule="evenodd" clip-rule="evenodd" d="M458.419,121.47c2.319-1.476,5.03-3.201,7.926-5.044
				c1.721,2.364,3.374,4.639,5.032,6.91c2.13,2.918,4.208,5.875,6.419,8.73c1.036,1.337,1.156,2.18-0.384,3.269
				c-2.099,1.484-3.996,3.253-5.761,4.718c1.631,5.03,3.314,9.863,4.75,14.769c1.137,3.884,1.003,3.901,5.129,4.096
				c1.796,0.085,3.587,0.28,5.5,0.434c0,7.162,0,14.297,0,21.644c-3.229,0.218-6.474,0.436-9.321,0.627
				c-2.07,6.294-4.05,12.313-6.115,18.593c1.865,1.546,4.03,3.367,6.229,5.146c0.727,0.587,1.238,1.101,0.532,2.064
				c-3.958,5.407-7.895,10.83-12,16.47c-2.89-1.842-5.688-3.625-8.068-5.142c-5.179,3.561-10.272,7.031-15.308,10.585
				c-0.399,0.281-0.637,1.2-0.522,1.731c0.606,2.822,1.349,5.616,2.097,8.631c-6.725,2.199-13.361,4.37-20.207,6.608
				c-1.271-3.23-2.483-6.309-3.602-9.148c-6.615,0-13.09,0-19.814,0c-1.082,2.751-2.296,5.838-3.595,9.141
				c-6.753-2.201-13.392-4.364-20.204-6.584c0.716-2.937,1.341-5.743,2.108-8.51c0.274-0.987,0.095-1.465-0.764-2.042
				c-4.962-3.329-9.872-6.736-15.148-10.356c-2.224,1.41-5.022,3.184-7.953,5.042c-0.665-0.865-1.259-1.605-1.818-2.372
				c-3.271-4.48-6.49-8.998-9.824-13.43c-0.968-1.286-0.877-2.011,0.417-2.971c2.118-1.57,4.089-3.34,5.691-4.668
				c-1.82-6.18-3.535-12.079-5.34-17.95c-0.125-0.405-0.912-0.812-1.425-0.859c-2.757-0.256-5.524-0.399-8.421-0.59
				c0-7.199,0-14.326,0-21.702c2.48-0.145,5.024-0.376,7.572-0.409c1.515-0.02,2.078-0.437,2.509-2.063
				c1.478-5.571,3.306-11.049,5.112-16.925c-1.716-1.416-3.827-3.195-5.985-4.917c-0.828-0.66-1.203-1.241-0.466-2.241
				c3.903-5.294,7.77-10.616,11.656-15.924c0.066-0.091,0.217-0.12,0.497-0.265c2.626,1.672,5.333,3.396,8.11,5.164
				c2.023-1.708,3.939-3.528,6.061-5.063c2.764-1.999,5.661-3.82,8.565-5.613c0.911-0.562,1.241-0.978,0.907-2.112
				c-0.779-2.645-1.342-5.352-2.063-8.321c6.734-2.206,13.411-4.394,20.198-6.617c1.263,3.2,2.455,6.222,3.543,8.979
				c6.733,0,13.219,0,19.937,0c1.062-2.712,2.229-5.69,3.514-8.969c6.695,2.183,13.375,4.36,20.218,6.591
				c-0.723,2.955-1.454,5.74-2.047,8.555c-0.107,0.512,0.172,1.396,0.574,1.68C448.053,114.361,453.094,117.802,458.419,121.47z
				 M410.827,112.31c-31.806-0.001-57.767,25.774-57.793,57.38c-0.026,31.995,25.705,58.143,57.234,58.162
				c32.223,0.019,58.295-25.695,58.307-57.506C468.586,138.219,442.807,112.311,410.827,112.31z"/>
			<path fill-rule="evenodd" clip-rule="evenodd" fill="#FFFFFF" d="M410.827,112.31c31.98,0.001,57.759,25.91,57.748,58.036
				c-0.012,31.811-26.084,57.524-58.307,57.506c-31.53-0.019-57.261-26.167-57.234-58.162
				C353.06,138.083,379.021,112.308,410.827,112.31z"/>
		</g>
	</g>
</g>
<text transform="matrix(1 0 0 1 309.5889 270.7749)" font-family="'FuturaStd-Book'" font-size="19.9348" letter-spacing="6">SOLUTIONS</text>
<g>
	<path d="M334.784,207.034L318.342,245.7H301.72l62.876-142.737l59.902,141.314l-0.139,2.035l-14.893,0.25l-16.504-39.528H334.784z
		 M364.235,138.376l-23.308,54.565H387L364.235,138.376z"/>
</g>
<rect x="364.754" y="102.9" width="59.16" height="10.326"/>
</svg>
